# xmcd
#
# Track frame offsets: 
#        150
#        19485
#        36372
#        54000
#        71917
#        89385
#        105482
#        118127
#        133892
#        148397
#
# Disc length: 2191 seconds
#
# Revision: 2
# Processed by: cddbd v1.4PL0 Copyright (c) Steve Scherf et al.
# Submitted via: ExactAudioCopy v0.90b3
#
DISCID=98088d0a
DTITLE=George Fox - Mustang Heart
DYEAR=1900
DGENRE=Country
TTITLE0=Mustang Heart
TTITLE1=Daughter Of The Rockies
TTITLE2=Great Big Green Eyes
TTITLE3=Breakfast Alone
TTITLE4=Wear And Tear On My Heart
TTITLE5=Better Love Next Time
TTITLE6=Honest Man
TTITLE7=No Hasta La Vista Tonight
TTITLE8=Good Memories
TTITLE9=Clearly Canadian
EXTD=
EXTT0=
EXTT1=
EXTT2=
EXTT3=
EXTT4=
EXTT5=
EXTT6=
EXTT7=
EXTT8=
EXTT9=
PLAYORDER=
